<svg t="1719653031149" class="icon" viewBox="0 0 1024 1024" version="1.1" xmlns="http://www.w3.org/2000/svg" p-id="6490" width="200" height="200"><path d="M972.8 560.128c0 250.88-204.8-6.144-456.704-6.144s-456.704 257.024-456.704 6.144 204.8-454.656 456.704-454.656S972.8 308.224 972.8 560.128z" fill="#dbdbdb" p-id="6491"></path><path d="M912.384 685.056c-35.84 0-79.872-19.456-133.12-43.008-73.728-32.768-165.888-72.704-263.168-72.704s-189.44 40.96-263.168 72.704c-73.728 32.768-132.096 58.368-171.008 32.768-25.6-17.408-37.888-53.248-37.888-114.688C44.032 301.056 256 90.112 516.096 90.112c260.096 0 472.064 210.944 472.064 470.016 0 61.44-12.288 98.304-37.888 114.688-11.264 7.168-23.552 10.24-37.888 10.24zM516.096 538.624c104.448 0 199.68 41.984 275.456 75.776 62.464 27.648 116.736 51.2 141.312 34.816 16.384-10.24 24.576-40.96 24.576-89.088 0-242.688-197.632-439.296-441.344-439.296S74.752 317.44 74.752 560.128c0 49.152 8.192 78.848 24.576 89.088 24.576 16.384 78.848-7.168 141.312-34.816 76.8-33.792 172.032-75.776 275.456-75.776z" fill="#bfbfbf" p-id="6492"></path><path d="M518.144 431.104c-224.256 0-410.624 208.896-442.368 60.416-3.072 20.48-4.096 41.984-4.096 63.488 0 245.76 199.68-6.144 446.464-6.144s446.464 251.904 446.464 6.144c0-21.504-2.048-43.008-5.12-63.488-30.72 148.48-217.088-60.416-441.344-60.416z" fill="#cdcdcd" p-id="6493"></path><path d="M201.728 406.528m-49.152 0a49.152 49.152 0 1 0 98.304 0 49.152 49.152 0 1 0-98.304 0Z" fill="#F255FF" p-id="6494"></path><path d="M201.728 472.064c-35.84 0-64.512-28.672-64.512-64.512s28.672-64.512 64.512-64.512 64.512 28.672 64.512 64.512-28.672 64.512-64.512 64.512z m0-99.328c-18.432 0-33.792 15.36-33.792 33.792s15.36 33.792 33.792 33.792 33.792-15.36 33.792-33.792-15.36-33.792-33.792-33.792z" fill="#bfbfbf" p-id="6495"></path><path d="M319.488 278.528m-49.152 0a49.152 49.152 0 1 0 98.304 0 49.152 49.152 0 1 0-98.304 0Z" fill="#5ED357" p-id="6496"></path><path d="M319.488 343.04c-35.84 0-64.512-28.672-64.512-64.512s28.672-64.512 64.512-64.512 64.512 28.672 64.512 64.512-28.672 64.512-64.512 64.512z m0-98.304c-18.432 0-33.792 15.36-33.792 33.792s15.36 33.792 33.792 33.792 33.792-15.36 33.792-33.792-14.336-33.792-33.792-33.792z" fill="#bfbfbf" p-id="6497"></path><path d="M491.52 211.968m-49.152 0a49.152 49.152 0 1 0 98.304 0 49.152 49.152 0 1 0-98.304 0Z" fill="#66C1FF" p-id="6498"></path><path d="M491.52 276.48c-35.84 0-64.512-28.672-64.512-64.512s28.672-64.512 64.512-64.512 64.512 28.672 64.512 64.512S527.36 276.48 491.52 276.48z m0-99.328c-18.432 0-33.792 15.36-33.792 33.792S473.088 245.76 491.52 245.76s33.792-15.36 33.792-33.792-14.336-34.816-33.792-34.816z" fill="#bfbfbf" p-id="6499"></path><path d="M687.104 244.736m-49.152 0a49.152 49.152 0 1 0 98.304 0 49.152 49.152 0 1 0-98.304 0Z" fill="#FFE08A" p-id="6500"></path><path d="M687.104 310.272c-35.84 0-64.512-28.672-64.512-64.512s28.672-64.512 64.512-64.512 64.512 28.672 64.512 64.512-28.672 64.512-64.512 64.512z m0-99.328c-18.432 0-33.792 15.36-33.792 33.792s15.36 33.792 33.792 33.792 33.792-15.36 33.792-33.792-15.36-33.792-33.792-33.792z" fill="#bfbfbf" p-id="6501"></path><path d="M824.32 391.168m-49.152 0a49.152 49.152 0 1 0 98.304 0 49.152 49.152 0 1 0-98.304 0Z" fill="#FC6B79" p-id="6502"></path><path d="M824.32 455.68c-35.84 0-64.512-28.672-64.512-64.512s28.672-64.512 64.512-64.512 64.512 28.672 64.512 64.512-28.672 64.512-64.512 64.512z m0-99.328c-18.432 0-33.792 15.36-33.792 33.792s15.36 33.792 33.792 33.792 33.792-15.36 33.792-33.792-15.36-33.792-33.792-33.792z" fill="#bfbfbf" p-id="6503"></path><path d="M570.368 403.456H462.848c-20.48 0-36.864-16.384-36.864-36.864s16.384-36.864 36.864-36.864h107.52c20.48 0 36.864 16.384 36.864 36.864s-17.408 36.864-36.864 36.864z" fill="#FFFFFF" p-id="6504"></path><path d="M570.368 418.816H462.848c-28.672 0-52.224-23.552-52.224-52.224s23.552-52.224 52.224-52.224h107.52c28.672 0 52.224 23.552 52.224 52.224s-23.552 52.224-52.224 52.224z m-107.52-73.728c-12.288 0-21.504 9.216-21.504 21.504s9.216 21.504 21.504 21.504h107.52c12.288 0 21.504-9.216 21.504-21.504s-9.216-21.504-21.504-21.504H462.848z" fill="#bfbfbf" p-id="6505"></path><path d="M697.344 948.224c-17.408 6.144-36.864-2.048-44.032-18.432L491.52 544.768l94.208-35.84 136.192 386.048c7.168 21.504-4.096 45.056-24.576 53.248z" fill="#FFE08A" p-id="6506"></path><path d="M685.056 965.632c-19.456 0-37.888-11.264-45.056-30.72l-167.936-399.36 123.904-47.104L737.28 889.856c10.24 29.696-4.096 61.44-33.792 72.704-7.168 2.048-13.312 3.072-18.432 3.072zM512 553.984l155.648 369.664c4.096 9.216 14.336 14.336 23.552 10.24 13.312-5.12 20.48-20.48 15.36-33.792L576.512 528.384 512 553.984z" fill="#bfbfbf" p-id="6507"></path><path d="M491.52 544.768s-66.56-60.416-18.432-122.88c48.128-61.44-1.024-57.344-1.024-57.344s82.944-46.08 112.64 143.36L491.52 544.768z" fill="#F7D7FF" p-id="6508"></path><path d="M491.52 560.128c-4.096 0-7.168-1.024-10.24-4.096-26.624-24.576-65.536-86.016-20.48-143.36 15.36-20.48 17.408-29.696 18.432-31.744-1.024 0-4.096-1.024-5.12-1.024-7.168 1.024-14.336-4.096-16.384-11.264s1.024-14.336 7.168-18.432c1.024-1.024 27.648-15.36 59.392 0 37.888 18.432 63.488 70.656 76.8 154.624 1.024 7.168-3.072 14.336-9.216 16.384l-94.208 35.84c-2.048 3.072-4.096 3.072-6.144 3.072zM509.952 378.88c1.024 18.432-13.312 37.888-24.576 53.248-30.72 39.936-3.072 79.872 10.24 95.232l72.704-27.648c-15.36-88.064-41.984-112.64-58.368-120.832 1.024 0 0 0 0 0z m-30.72 1.024z" fill="#bfbfbf" p-id="6509"></path><path d="M498.688 416.768c16.384-21.504 20.48-33.792 18.432-40.96-21.504-11.264-40.96-1.024-40.96-1.024s43.008-4.096 1.024 50.176c-41.984 54.272 16.384 108.544 16.384 108.544l21.504-8.192s-58.368-54.272-16.384-108.544z" fill="#E39DF4" p-id="6510"></path></svg>